<?xml version="1.0" encoding="UTF-8"?>
<!-- Generator: visioncortex VTracer -->
<svg id="svg" version="1.1" xmlns="http://www.w3.org/2000/svg" style="display: block;" viewBox="-120 -80 3484 1198"><path d="M0 0 C1.34744807 -0.00706392 2.69489577 -0.01419661 4.04234314 -0.02139282 C8.32380728 -0.04091501 12.60521426 -0.0460848 16.88671875 -0.046875 C17.61648422 -0.04716957 18.34624969 -0.04746414 19.09812927 -0.04776764 C40.7270189 -0.04917847 62.11881202 0.11961452 83.57421875 3.203125 C85.04931401 3.40919681 86.52441179 3.61525067 87.99951172 3.82128906 C156.67406608 13.55079984 222.82367859 35.72056233 282.57421875 71.203125 C283.46834473 71.73405762 284.3624707 72.26499023 285.28369141 72.81201172 C303.15303817 83.49982432 320.25535601 95.2707672 336.57421875 108.203125 C337.41726563 108.86441406 338.2603125 109.52570313 339.12890625 110.20703125 C349.3458485 118.28592329 359.20560391 126.7452801 368.75390625 135.6015625 C371.26900743 137.92158658 373.81966788 140.19107028 376.38671875 142.453125 C380.83351858 146.44587557 385.0908929 150.61184194 389.32421875 154.828125 C389.95046143 155.44977539 390.5767041 156.07142578 391.22192383 156.71191406 C393.02710491 158.52309401 394.80461058 160.35722353 396.57421875 162.203125 C397.17556641 162.81124023 397.77691406 163.41935547 398.39648438 164.04589844 C402.52118491 168.44415177 402.52118491 168.44415177 402.75 171.71875 C401.14452525 175.1110488 399.04520915 177.99903301 396.76171875 180.953125 C395.75244922 182.2931747 394.7446909 183.63436363 393.73828125 184.9765625 C393.21524414 185.67104492 392.69220703 186.36552734 392.15332031 187.08105469 C389.58332644 190.53473229 387.10940541 194.05443461 384.63671875 197.578125 C384.13873779 198.28614258 383.64075684 198.99416016 383.12768555 199.72363281 C382.11478502 201.16407215 381.10233437 202.60482793 380.09033203 204.04589844 C377.5907855 207.60241907 375.08208117 211.15246599 372.57421875 214.703125 C371.57417401 216.11976008 370.57417403 217.53642677 369.57421875 218.953125 C367.57421875 221.78645833 365.57421875 224.61979167 363.57421875 227.453125 C363.07929932 228.15429443 362.58437988 228.85546387 362.07446289 229.57788086 C361.07377687 230.99545154 360.07296292 232.41293192 359.07202148 233.83032227 C356.58146424 237.35743072 354.09310283 240.88604717 351.609375 244.41796875 C346.50189789 251.67547612 341.35376852 258.89892086 336.13671875 266.078125 C331.67820616 272.21814137 327.33667284 278.42552936 323.07421875 284.703125 C318.29173391 291.74660403 313.38584825 298.6849712 308.38110352 305.57202148 C304.72021733 310.61050031 301.09864063 315.67422615 297.51171875 320.765625 C297.02630615 321.45374268 296.54089355 322.14186035 296.04077148 322.85083008 C293.44898584 326.52873012 290.8684177 330.21416801 288.296875 333.90625 C287.48778687 335.06338501 287.48778687 335.06338501 286.66235352 336.24389648 C285.63210442 337.71760407 284.60504991 339.1935521 283.58178711 340.67211914 C281.14088179 344.15834395 278.72850062 347.30922017 275.57421875 350.203125 C275.2275415 349.71545654 274.88086426 349.22778809 274.52368164 348.7253418 C265.78048252 336.45248617 256.85145666 324.68215535 246.6875 313.53515625 C244.80045338 311.45277764 242.96363642 309.33809436 241.13671875 307.203125 C234.52281885 299.62469804 227.27897703 292.65948546 219.57421875 286.203125 C219.08904785 285.78289062 218.60387695 285.36265625 218.10400391 284.9296875 C199.71560412 269.02858097 178.8058902 255.94390312 157.57421875 244.203125 C160.03639842 234.74157619 162.94915302 225.42938196 165.87890625 216.10546875 C166.40055738 214.43996599 166.92201189 212.77440162 167.44328308 211.10877991 C168.54304731 207.59585532 169.64397272 204.08329784 170.74588013 200.57104492 C173.30399257 192.41698613 175.85618638 184.26107424 178.40883827 176.10530472 C179.24718731 173.42695471 180.08576694 170.74867698 180.92436218 168.07040405 C185.1865387 154.45560806 189.42580342 140.83387468 193.63671875 127.203125 C194.03706329 125.90748123 194.03706329 125.90748123 194.44549561 124.58566284 C195.82340828 120.12533141 197.19982277 115.66454156 198.57421875 111.203125 C189.79616055 122.09333233 182.20336843 133.71593599 174.54956055 145.40713501 C171.3056827 150.36067311 168.05180931 155.30762848 164.796875 160.25390625 C164.16125641 161.21985214 163.52563782 162.18579803 162.87075806 163.18101501 C156.27650907 173.19110374 149.54804589 183.10371717 142.77001953 192.99023438 C138.64896324 199.0201544 134.55862373 205.07094005 130.46459961 211.11923218 C129.03462759 213.23178095 127.60429093 215.34408235 126.17382812 217.45629883 C123.97369294 220.70506127 121.77386106 223.95402884 119.57421875 227.203125 C115.3908249 226.66432779 111.43715212 225.99051764 107.40625 224.75 C96.09074549 221.36976089 84.83230185 218.46364153 73.19921875 216.390625 C72.1213208 216.19629883 71.04342285 216.00197266 69.93286133 215.80175781 C52.79886525 212.87866546 35.87568182 211.82352873 18.51171875 211.890625 C17.52765045 211.89244781 16.54358215 211.89427063 15.5296936 211.89614868 C0.03237665 211.94433988 -15.12688848 212.51979764 -30.42578125 215.203125 C-31.41126953 215.37473145 -32.39675781 215.54633789 -33.41210938 215.72314453 C-80.25387054 224.17187611 -125.39698438 242.30528261 -163.42578125 271.203125 C-163.99458008 271.63447754 -164.56337891 272.06583008 -165.14941406 272.51025391 C-169.29642751 275.67422879 -173.37768068 278.91375805 -177.42578125 282.203125 C-177.98201172 282.65349121 -178.53824219 283.10385742 -179.11132812 283.56787109 C-193.53945795 295.34018122 -207.01401851 308.47452877 -218.42578125 323.203125 C-219.86162893 324.91284733 -221.29919694 326.62112606 -222.73828125 328.328125 C-272.7655811 389.80014509 -295.78452834 471.44545033 -287.86328125 550.01953125 C-280.50381223 616.93375105 -252.97982795 679.10938782 -207.00390625 728.37890625 C-205.20843412 730.34576436 -203.49871169 732.30614189 -201.81640625 734.36328125 C-199.92429007 736.61094213 -198.16799378 738.46301185 -195.92578125 740.328125 C-192.89096213 742.90517811 -189.97233598 745.56958181 -187.08837891 748.31445312 C-156.0192026 777.70549571 -117.1857969 797.39860238 -77.42578125 812.203125 C-81.52973127 827.33690298 -85.93617145 842.37016325 -90.47265625 857.37890625 C-90.87701149 858.71704187 -90.87701149 858.71704187 -91.28953552 860.08221054 C-93.53496435 867.50968699 -95.78647794 874.93531633 -98.03875732 882.36071777 C-99.73151041 887.94200819 -101.42191643 893.52399876 -103.10916901 899.10695457 C-103.88841436 901.68205774 -104.67102422 904.25612156 -105.45379639 906.83015442 C-108.00126375 915.23945862 -110.4233099 923.64305564 -112.42578125 932.203125 C-111.80863251 931.29413956 -111.80863251 931.29413956 -111.17901611 930.36679077 C-103.22977595 918.66113332 -95.22149292 906.9993658 -87.12890625 895.39233398 C-83.37574454 890.00861777 -79.6360907 884.61645804 -75.92578125 879.203125 C-71.45561 872.6822755 -66.9441858 866.1906315 -62.42578125 859.703125 C-49.7671505 841.56125524 -49.7671505 841.56125524 -37.42578125 823.203125 C-31.3550411 823.57945147 -25.29147826 823.95631682 -19.25219727 824.68847656 C-6.87701157 826.18370267 5.36525255 826.6038267 17.82421875 826.578125 C18.82490387 826.57758118 19.82558899 826.57703735 20.8565979 826.57647705 C38.39333127 826.53292917 55.29197584 825.36478053 72.57421875 822.203125 C74.24943604 821.90559326 74.24943604 821.90559326 75.95849609 821.60205078 C103.91096636 816.47491593 131.25733149 807.07385022 156.57421875 794.203125 C157.43756836 793.76532715 158.30091797 793.3275293 159.19042969 792.87646484 C182.09094782 781.10341752 204.21366842 766.35340833 222.97265625 748.65625 C225.16940279 746.58484335 227.40245454 744.59882238 229.69921875 742.640625 C237.24244004 736.08539319 244.1729108 728.86980778 250.57421875 721.203125 C251.01572266 720.68073242 251.45722656 720.15833984 251.91210938 719.62011719 C269.78714972 698.40668464 284.12151665 675.65217751 296.32421875 650.765625 C297.08424194 649.2331311 297.08424194 649.2331311 297.85961914 647.66967773 C302.9631101 637.0332145 306.4776254 626.46875672 310.57421875 615.203125 C260.41421875 615.203125 210.25421875 615.203125 158.57421875 615.203125 C163.07175427 607.33243784 163.07175427 607.33243784 165.09765625 604.50390625 C165.55382324 603.86283936 166.00999023 603.22177246 166.47998047 602.5612793 C166.9648291 601.88621338 167.44967773 601.21114746 167.94921875 600.515625 C169.02256315 599.00811695 170.09546154 597.50029127 171.16796875 595.9921875 C171.72613281 595.20875977 172.28429687 594.42533203 172.859375 593.61816406 C175.74326237 589.5567441 178.5957556 585.47345052 181.44921875 581.390625 C182.63410143 579.69660538 183.81899736 578.00259503 185.00390625 576.30859375 C185.59397461 575.46474121 186.18404297 574.62088867 186.79199219 573.75146484 C189.71798608 569.5676944 192.64620185 565.38547976 195.57421875 561.203125 C196.74089634 559.53646598 197.907563 557.86979931 199.07421875 556.203125 C210.74088542 539.53645833 222.40755208 522.86979167 234.07421875 506.203125 C234.65236328 505.3771582 235.23050781 504.55119141 235.82617188 503.70019531 C236.98615316 502.04317177 238.14630779 500.38626957 239.30664062 498.72949219 C242.32706855 494.41629392 245.34393666 490.10066512 248.35546875 485.78125 C248.97808594 484.88921875 249.60070312 483.9971875 250.2421875 483.078125 C251.42300624 481.38620561 252.60277475 479.69355253 253.78125 478 C254.32136719 477.2265625 254.86148438 476.453125 255.41796875 475.65625 C255.88396484 474.98754883 256.34996094 474.31884766 256.83007812 473.62988281 C257.69342773 472.4286377 257.69342773 472.4286377 258.57421875 471.203125 C258.94452988 470.5589704 259.31484102 469.9148158 259.6963737 469.25114137 C263.21487473 463.66232409 263.21487473 463.66232409 266.77590799 462.45937383 C269.48947767 462.17851653 272.10557297 462.15092839 274.83331299 462.20744324 C275.86452263 462.19708001 276.89573226 462.18671678 277.95819068 462.17603952 C281.41356284 462.15115438 284.86601151 462.18344678 288.32128906 462.21557617 C290.79853837 462.2096471 293.27578148 462.20026927 295.75300598 462.18769836 C301.78386686 462.16648059 307.8135831 462.18250394 313.84430203 462.21607455 C320.87286586 462.25375121 327.90123121 462.25034875 334.92987248 462.24563531 C347.47702577 462.23875643 360.02377419 462.27123427 372.57080078 462.32495117 C384.73269664 462.37700168 396.89414913 462.39830599 409.05615234 462.38647461 C422.3081784 462.37363426 435.56001519 462.37633749 448.81201816 462.40731984 C449.51379282 462.40895806 450.21556748 462.41059628 450.93860804 462.41228414 C452.34792327 462.41557486 453.75723843 462.41889662 455.16655351 462.42224982 C460.05963435 462.43299962 464.95265204 462.43330625 469.84574127 462.42995262 C476.44179757 462.42600537 483.03738648 462.44959037 489.63333702 462.49123955 C492.05117753 462.50262121 494.46907483 462.50559109 496.88693428 462.49943161 C500.19427316 462.49246592 503.50002612 462.51640728 506.80718994 462.54801941 C507.75837873 462.53891216 508.70956751 462.52980491 509.6895802 462.52042168 C517.25820872 462.64597809 523.72443289 464.83462039 529.490412 469.87976521 C535.60115471 476.19959311 536.69073107 483.48580872 537.13671875 491.98828125 C537.17771194 492.73432114 537.21870514 493.48036102 537.26094055 494.24900818 C537.66340431 502.08749354 537.7737283 509.91794137 537.76171875 517.765625 C537.7611145 518.51091461 537.76051025 519.25620422 537.7598877 520.02407837 C537.55964823 612.48953367 513.13396489 704.7419416 400.57421875 871.203125 C400.13674316 871.68571777 399.69926758 872.16831055 399.24853516 872.66552734 C389.52426481 883.39027876 379.61291283 894.14030533 368.55078125 903.5078125 C366.06561681 905.6393567 363.66981729 907.85996099 361.26171875 910.078125 C355.85710793 914.99543484 350.2935242 919.6584242 344.57421875 924.203125 C343.61733154 924.96882812 343.61733154 924.96882812 342.64111328 925.75 C331.3092024 934.79650568 319.64812626 943.17901745 307.57421875 951.203125 C306.77790039 951.7379248 305.98158203 952.27272461 305.16113281 952.82373047 C292.0090692 961.64743457 278.48280257 969.63251203 264.57421875 977.203125 C263.16052002 977.97487061 263.16052002 977.97487061 261.71826172 978.76220703 C239.46134479 990.83927699 216.41601461 1000.71105677 192.57421875 1009.203125 C191.0732666 1009.74767334 191.0732666 1009.74767334 189.54199219 1010.30322266 C140.99272805 1027.81216026 87.76962626 1038.23050423 36.11328125 1038.40625 C35.44894451 1038.40907738 34.78460777 1038.41190475 34.10013962 1038.41481781 C30.5683836 1038.42967882 27.03666689 1038.43898456 23.50488281 1038.44335938 C20.66653229 1038.44769384 17.82849439 1038.46140652 14.99023438 1038.484375 C-11.09828221 1038.69087341 -36.89694215 1037.15969759 -62.67578125 1032.890625 C-63.31802643 1032.78674469 -63.96027161 1032.68286438 -64.62197876 1032.57583618 C-117.85751408 1023.95212914 -168.23020446 1007.23544074 -216.42578125 983.203125 C-217.40434082 982.71585938 -218.38290039 982.22859375 -219.39111328 981.7265625 C-257.59829857 962.56854367 -293.76761817 938.06359351 -325.296875 909.1484375 C-327.34987117 907.2724887 -329.44170856 905.45304585 -331.55078125 903.640625 C-335.01180703 900.63133954 -338.22389998 897.42601002 -341.4375 894.15625 C-343.30564372 892.32113829 -345.23311612 890.63566682 -347.23828125 888.953125 C-352.2158098 884.6631539 -356.51199212 879.75815519 -360.89892578 874.8828125 C-363.030225 872.53817888 -365.20360096 870.23417028 -367.37451172 867.92626953 C-373.34671427 861.56438641 -378.99275911 855.03584097 -384.42578125 848.203125 C-385.38045103 847.02778455 -386.33624721 845.85335843 -387.29296875 844.6796875 C-394.00923116 836.41351838 -400.40389591 827.99006101 -406.42578125 819.203125 C-407.01375488 818.3457373 -407.60172852 817.48834961 -408.20751953 816.60498047 C-423.65987554 793.96873668 -437.11584598 770.68582657 -449.42578125 746.203125 C-449.84811035 745.37312988 -450.27043945 744.54313477 -450.70556641 743.68798828 C-474.8339478 696.05833724 -489.43496976 642.73513782 -496.61328125 590.015625 C-496.76829102 588.87786621 -496.92330078 587.74010742 -497.08300781 586.56787109 C-497.57180045 582.78372159 -498.01060386 578.99588025 -498.42578125 575.203125 C-498.51405182 574.42119781 -498.60232239 573.63927063 -498.69326782 572.83364868 C-500.47975096 556.57804121 -500.7702644 540.36262143 -500.74145508 524.02758789 C-500.73684812 521.20222954 -500.74367588 518.37730431 -500.76196289 515.55200195 C-500.933352 488.76089301 -499.23523601 462.27957595 -494.73828125 435.828125 C-494.61295013 435.07517151 -494.48761902 434.32221802 -494.35848999 433.54644775 C-486.18859926 384.74936177 -470.93034657 337.75095077 -449.42578125 293.203125 C-449.00474121 292.31866699 -448.58370117 291.43420898 -448.14990234 290.52294922 C-435.15037949 263.26216973 -419.29866156 236.8067735 -400.76904297 212.94335938 C-398.70162861 210.26496433 -396.69260743 207.5448071 -394.67578125 204.828125 C-384.1947995 190.87848202 -372.87823627 177.64579856 -360.98730469 164.88232422 C-359.21364446 162.97500167 -357.44899237 161.05950208 -355.68359375 159.14453125 C-354.36888487 157.726196 -353.05378349 156.30822445 -351.73828125 154.890625 C-351.13266357 154.23271973 -350.5270459 153.57481445 -349.90307617 152.89697266 C-346.19198559 148.91681669 -342.3175697 145.27442324 -338.18676758 141.73266602 C-336.22046456 140.02479295 -334.40555647 138.21693963 -332.61328125 136.328125 C-328.79216551 132.45507177 -324.68751016 129.06478456 -320.4453125 125.6640625 C-317.80521912 123.51236932 -315.23900055 121.30622106 -312.68139648 119.05908203 C-291.00813893 100.10162272 -266.48551614 83.38015842 -241.42578125 69.203125 C-240.72727051 68.80722168 -240.02875977 68.41131836 -239.30908203 68.00341797 C-234.73606802 65.42125476 -230.142172 62.87957992 -225.53369141 60.36132812 C-223.67111426 59.33792461 -221.81907984 58.29538409 -219.96875 57.25 C-166.19114883 27.45007199 -104.60951712 10.22002809 -43.80078125 2.890625 C-43.12544342 2.80922272 -42.45010559 2.72782043 -41.75430298 2.64395142 C-27.84354017 0.99200436 -14.01367522 0.04954373 0 0 Z " transform="translate(500.42578125,-0.203125)" style="fill: #0080FF;"/><path d="M0 0 C10.66774228 9.77876376 21.00578197 19.94333715 29.765625 31.48828125 C30.82144695 32.85039037 31.87745085 34.21235847 32.93359375 35.57421875 C34.0456677 37.02366892 35.15635008 38.47418784 36.265625 39.92578125 C36.79518799 40.61293213 37.32475098 41.30008301 37.87036133 42.00805664 C38.36173584 42.6602417 38.85311035 43.31242676 39.359375 43.984375 C39.79958984 44.56372803 40.23980469 45.14308105 40.69335938 45.73999023 C41.85914782 47.64076689 42.33815819 49.31064828 42.765625 51.48828125 C33.91069501 56.90195882 24.96468516 62.15204686 15.953125 67.30078125 C14.99978271 67.85145264 14.04644043 68.40212402 13.06420898 68.96948242 C-3.81490305 78.55766033 -20.34782706 82.39404168 -39.47631836 77.31811523 C-49.33941048 74.45092335 -56.48571794 69.49382109 -64.12011719 62.80517578 C-70.39046951 57.3604505 -77.20158838 52.88097024 -84.234375 48.48828125 C-85.34296875 47.78832031 -86.4515625 47.08835937 -87.59375 46.3671875 C-102.58076448 37.3433161 -119.2251971 31.39339173 -136.234375 27.48828125 C-136.92128418 27.32457031 -137.60819336 27.16085937 -138.31591797 26.9921875 C-159.88217722 22.06973078 -185.76077564 22.27711488 -207.234375 27.48828125 C-208.46671875 27.76671875 -209.6990625 28.04515625 -210.96875 28.33203125 C-240.46569333 35.55069249 -267.11865597 49.80549207 -288.81152344 71.10058594 C-290.1326323 72.38905244 -291.48321171 73.64711171 -292.8359375 74.90234375 C-315.98267777 96.87337658 -330.65170121 127.57140152 -337.234375 158.48828125 C-337.39808594 159.2551123 -337.56179688 160.02194336 -337.73046875 160.81201172 C-342.08845561 182.28230027 -341.80430968 205.08245533 -337.234375 226.48828125 C-336.98494141 227.65979736 -336.98494141 227.65979736 -336.73046875 228.85498047 C-329.65040227 260.80050266 -313.82789134 288.07193579 -291.234375 311.48828125 C-290.49832031 312.27589844 -289.76226563 313.06351563 -289.00390625 313.875 C-260.28843229 343.84579523 -216.95376077 360.26367388 -175.98510742 361.51757812 C-129.00293207 362.16736865 -87.39038185 344.20457333 -53.234375 312.48828125 C-52.34492187 311.68003906 -52.34492187 311.68003906 -51.4375 310.85546875 C-36.43860221 296.64222751 -23.74942267 276.69158734 -16.234375 257.48828125 C-16.94998974 257.49104663 -17.66560448 257.49381201 -18.40290451 257.49666119 C-35.85690766 257.56306323 -53.31087851 257.6126308 -70.76498032 257.64371777 C-79.20583396 257.65915276 -87.64660301 257.68017747 -96.08740234 257.71459961 C-103.4488243 257.74460553 -110.81018496 257.7638807 -118.17166638 257.77054673 C-122.0655179 257.77444014 -125.95919414 257.78351896 -129.8529892 257.80547142 C-133.52688373 257.82601399 -137.20053277 257.83207967 -140.87447929 257.82760429 C-142.84744799 257.82880785 -144.82039068 257.84485613 -146.79328918 257.86154175 C-163.12526672 257.80554921 -177.09982141 253.21268327 -188.98828125 241.76171875 C-189.72949219 241.01148438 -190.47070312 240.26125 -191.234375 239.48828125 C-191.88277344 238.86179687 -192.53117187 238.2353125 -193.19921875 237.58984375 C-206.67482975 223.61295181 -207.72205855 204.40371064 -207.421875 186.11328125 C-207.4067808 184.49089803 -207.39310088 182.86850101 -207.38085938 181.24609375 C-207.34827467 177.32647309 -207.29676314 173.40753612 -207.234375 169.48828125 C-175.60715674 169.39692239 -143.9799762 169.32618668 -112.35265671 169.28401993 C-108.61409189 169.27901744 -104.87552732 169.27384011 -101.13696289 169.26855469 C-100.39271923 169.26750545 -99.64847558 169.2664562 -98.88167908 169.26537517 C-86.84974837 169.24799606 -74.81789454 169.21647222 -62.78600935 169.17967007 C-50.42926577 169.14219103 -38.0725623 169.12003072 -25.71576422 169.11192727 C-18.09822434 169.10645388 -10.4809018 169.08920152 -2.86342885 169.05661538 C2.9893557 169.03286202 8.84203025 169.03047891 14.69486427 169.03585052 C17.08729002 169.03475407 19.47972434 169.02685089 21.87210083 169.01145935 C38.00519271 168.9127955 51.53126835 169.14568364 64.765625 179.48828125 C65.37921875 179.92785156 65.9928125 180.36742187 66.625 180.8203125 C75.84555869 187.89892725 81.96460438 200.10987058 83.765625 211.48828125 C87.6401871 263.19145419 58.32409054 320.19571119 25.765625 358.48828125 C22.20843431 362.60076755 18.53623355 366.57338065 14.765625 370.48828125 C14.13350098 371.14763672 13.50137695 371.80699219 12.85009766 372.48632812 C3.70322447 381.97710125 -5.59883194 390.70148901 -16.234375 398.48828125 C-17.32717614 399.31072879 -18.41962466 400.13364507 -19.51171875 400.95703125 C-74.21812803 441.6567966 -143.83034102 457.78659576 -211.06640625 447.99316406 C-239.88630157 443.4001043 -267.50106869 434.23781273 -293.234375 420.48828125 C-294.21567383 419.96862793 -294.21567383 419.96862793 -295.21679688 419.43847656 C-317.13607823 407.75175728 -336.31729603 392.61344513 -354.234375 375.48828125 C-354.98203125 374.781875 -355.7296875 374.07546875 -356.5 373.34765625 C-361.02549271 368.96469875 -365.0158765 364.24294376 -368.953125 359.328125 C-370.43030133 357.48924282 -371.9291704 355.66749302 -373.453125 353.8671875 C-404.35083859 317.25774869 -422.14203338 270.63387848 -428.234375 223.48828125 C-428.32170395 222.81713287 -428.4090329 222.1459845 -428.49900818 221.45449829 C-429.17291627 215.88683211 -429.40827067 210.39840361 -429.4375 204.79296875 C-429.44451431 203.89101273 -429.45152863 202.9890567 -429.45875549 202.05976868 C-429.47618232 199.16088828 -429.48260887 196.26221212 -429.484375 193.36328125 C-429.48504974 192.37341217 -429.48572449 191.38354309 -429.48641968 190.36367798 C-429.47068338 175.85378255 -429.0213505 161.76634146 -426.234375 147.48828125 C-425.99291748 146.1427417 -425.99291748 146.1427417 -425.74658203 144.77001953 C-417.31238909 98.15915307 -395.41140768 54.88233492 -363.5078125 19.984375 C-362.01617959 18.34665433 -360.54146719 16.69332702 -359.0859375 15.0234375 C-316.61149133 -33.50783402 -251.44229781 -60.90460998 -188.00390625 -65.19921875 C-119.26149169 -69.21404037 -51.31416814 -46.00891064 0 0 Z " transform="translate(1670.234375,326.51171875)" style="fill: #0080FF;"/><path d="M0 0 C4.97634293 -0.10051656 9.95206737 -0.17222578 14.92919922 -0.21972656 C16.61452554 -0.23957276 18.29978561 -0.26665893 19.98486328 -0.30175781 C39.84168354 -0.70434093 56.7886712 2.62373593 71.78417969 16.61938477 C80.74283843 25.41711836 87.45942885 37.61283479 88.12304783 50.36438465 C88.12212604 51.1857022 88.12120424 52.00701975 88.12025452 52.85322571 C88.12231651 54.27711357 88.12231651 54.27711357 88.12442017 55.72976685 C88.11902725 57.27372635 88.11902725 57.27372635 88.11352539 58.84887695 C88.11367142 59.94200699 88.11381744 61.03513702 88.1139679 62.16139221 C88.11327188 65.77037549 88.10549396 69.379307 88.09765625 72.98828125 C88.09579097 75.49220247 88.09436758 77.99612406 88.09336853 80.50004578 C88.08994201 86.41435416 88.08206247 92.32864598 88.07201904 98.24294585 C88.05973246 105.63917414 88.05437139 113.03540474 88.04882812 120.43164062 C88.03810611 133.62110316 88.02123254 146.81055041 88 160 C88.58378418 159.65939545 89.16756836 159.31879089 89.76904297 158.96786499 C92.46784215 157.39750621 95.17136367 155.83545246 97.875 154.2734375 C98.7928125 153.73775146 99.710625 153.20206543 100.65625 152.65014648 C120.92922571 140.96998574 143.90332776 134.24943061 167 131 C167.63429932 130.9064624 168.26859863 130.8129248 168.92211914 130.71655273 C198.09117751 126.88731678 228.31811091 130.47498314 256 140 C256.68143066 140.22381348 257.36286133 140.44762695 258.06494141 140.67822266 C304.56452355 155.98752693 343.05702185 192.46237258 365.28173828 235.48095703 C378.78756787 262.67067948 385.22471628 291.54960547 385.25 321.8125 C385.25067474 322.54165619 385.25134949 323.27081238 385.25204468 324.02206421 C385.23417887 336.22641259 384.49054121 348.03020402 382 360 C381.83371094 360.81645996 381.66742187 361.63291992 381.49609375 362.47412109 C370.87812996 412.93894346 339.96209284 456.78235571 297 485 C273.0229153 500.27724382 247.06674213 509.68744106 219 514 C218.32445068 514.1045752 217.64890137 514.20915039 216.95288086 514.31689453 C176.58340347 519.67012377 135.68921486 510.9676305 100 492 C98.83855469 491.39542969 97.67710937 490.79085938 96.48046875 490.16796875 C81.80941862 482.20368439 68.97863174 471.55145914 57 460 C56.22527344 459.27683594 55.45054687 458.55367187 54.65234375 457.80859375 C32.63107052 436.71943791 16.70950029 407.96607131 8 379 C7.79439453 378.32533691 7.58878906 377.65067383 7.37695312 376.95556641 C1.95842904 358.87101422 -0.16326647 340.75308579 -0.12025452 321.92134094 C-0.12069144 320.52591421 -0.12156856 319.13048756 -0.12284368 317.73506135 C-0.12506494 313.92897473 -0.12110004 310.12291661 -0.11606562 306.31683362 C-0.11172706 302.20178745 -0.11320995 298.08674276 -0.1139679 293.97169495 C-0.11449098 286.85150589 -0.11136674 279.73132604 -0.10573006 272.6111393 C-0.0975858 262.31668056 -0.09499684 252.02222624 -0.09374207 241.72776463 C-0.09155614 225.02366674 -0.08490852 208.31957375 -0.07543945 191.61547852 C-0.06625345 175.39379908 -0.05917843 159.17212097 -0.05493164 142.95043945 C-0.05466892 141.9496989 -0.05440619 140.94895834 -0.05413551 139.91789231 C-0.05283042 134.89722136 -0.05156673 129.8765504 -0.05032361 124.85587943 C-0.0399653 83.23724955 -0.02235949 41.61862505 0 0 Z M115.52539062 257.22900391 C97.68380199 277.94329391 90.15151221 305.00301216 92 332 C95.30645776 360.47317123 109.42908668 384.84081483 131.46484375 403.03515625 C149.32041731 416.07774659 170.08327261 423.44274816 192.25 423.3125 C193.75324829 423.30512817 193.75324829 423.30512817 195.28686523 423.29760742 C218.4279551 422.93489441 240.62692886 414.23900877 258 399 C258.74507812 398.39800781 259.49015625 397.79601562 260.2578125 397.17578125 C279.0082268 381.59399097 289.73915652 357.80798896 293 334 C293.27614076 330.24435426 293.33462171 326.51485882 293.3125 322.75 C293.30758545 321.74783447 293.3026709 320.74566895 293.29760742 319.71313477 C292.93489441 296.5720449 284.23900877 274.37307114 269 257 C268.39800781 256.25492188 267.79601563 255.50984375 267.17578125 254.7421875 C251.57022545 235.96317486 227.82231977 225.31428632 204 222 C169.70516442 219.23261425 138.69589945 231.76572894 115.52539062 257.22900391 Z " transform="translate(2197,261)" style="fill: #0080FF;"/><path d="M0 0 C1.74216797 0.90685547 1.74216797 0.90685547 3.51953125 1.83203125 C18.19058138 9.79631561 31.02136826 20.44854086 43 32 C43.77472656 32.72316406 44.54945313 33.44632812 45.34765625 34.19140625 C67.36892948 55.28056209 83.29049971 84.03392869 92 113 C92.20560547 113.67466309 92.41121094 114.34932617 92.62304688 115.04443359 C107.54456099 164.84561497 100.24923377 217.32543303 76.61425781 263.02783203 C67.93434119 279.00927561 56.41191857 292.81570444 44 306 C43.30519531 306.76054688 42.61039063 307.52109375 41.89453125 308.3046875 C11.76910272 340.11993697 -36.09948907 360.4070398 -79.56518555 362.14233398 C-106.01785493 362.78736092 -130.80344496 360.66984225 -156 352 C-156.68143066 351.77618652 -157.36286133 351.55237305 -158.06494141 351.32177734 C-200.57987036 337.32436159 -238.10902534 304.77184997 -260 266 C-260.3604541 265.36658691 -260.7209082 264.73317383 -261.09228516 264.08056641 C-283.45611918 224.46980457 -291.6416989 175.70673573 -282 131 C-281.75056641 129.83621826 -281.75056641 129.83621826 -281.49609375 128.64892578 C-270.43994316 79.09075448 -240.97316858 35.84852301 -198.63671875 7.734375 C-195.46884492 5.73029044 -192.26416177 3.84297842 -189 2 C-188.36658691 1.6395459 -187.73317383 1.2790918 -187.08056641 0.90771484 C-129.17962889 -31.7825667 -58.32375354 -30.99713488 0 0 Z M-158 93 C-158.74507812 93.60199219 -159.49015625 94.20398438 -160.2578125 94.82421875 C-177.51884418 109.1683165 -189.60137185 132.23534901 -192.71875 154.38671875 C-194.91400976 182.58970867 -189.7991815 210.68388977 -170.98046875 232.7421875 C-170.32691406 233.48726562 -169.67335938 234.23234375 -169 235 C-168.39800781 235.74507812 -167.79601563 236.49015625 -167.17578125 237.2578125 C-151.57022545 256.03682514 -127.82231977 266.68571368 -104 270 C-76.65144949 272.20686257 -49.70747331 265.14954714 -28.4921875 247.23828125 C-7.79208413 228.64712258 6.15444603 205.34720542 8.140625 176.99243164 C9.32781561 151.10870828 2.30752987 124.69973897 -15.19873047 105.04052734 C-17.41768635 102.6438119 -19.70091549 100.32014482 -22 98 C-22.94166016 96.98486328 -22.94166016 96.98486328 -23.90234375 95.94921875 C-39.42023698 79.48199558 -64.12672387 69.47042005 -86.578125 68.69921875 C-88.46865601 68.67996624 -90.3594036 68.67639116 -92.25 68.6875 C-93.75324829 68.69487183 -93.75324829 68.69487183 -95.28686523 68.70239258 C-118.4279551 69.06510559 -140.62692886 77.76099123 -158 93 Z " transform="translate(2910,414)" style="fill: #0080FF;"/><path d="M0 0 C5.40356375 -0.12543987 10.80624437 -0.21518755 16.2109375 -0.2746582 C18.04181719 -0.29949945 19.87260103 -0.33338505 21.703125 -0.37719727 C41.04991128 -0.82798587 57.16253769 2.52062371 71.75 16.25 C82.1222637 27.21602477 88.10548088 40.59608466 88.13803101 55.75091553 C88.14085229 56.41697917 88.14367357 57.08304282 88.14658034 57.76929021 C88.15489228 59.99431737 88.15626172 62.21929454 88.15771484 64.44433594 C88.16238596 66.04308715 88.16753002 67.64183703 88.17311096 69.24058533 C88.18437862 72.68251164 88.1928196 76.12442937 88.19923019 79.5663681 C88.20994302 85.02387172 88.2302003 90.48131405 88.25234985 95.93878174 C88.31415185 111.45801964 88.36814146 126.97725471 88.40136719 142.49658203 C88.41980016 151.06891704 88.44884906 159.64114989 88.4893719 168.21340966 C88.51030779 172.7416615 88.52587982 177.26978532 88.52817917 181.79808807 C88.53035055 186.06964051 88.54646888 190.34092705 88.57256889 194.61239815 C88.57967138 196.16620218 88.58190783 197.72003876 88.57846642 199.27385521 C88.52931409 225.72366491 95.22877608 249.23709577 113.7734375 268.76953125 C114.50820312 269.50558594 115.24296875 270.24164062 116 271 C116.67289063 271.68449219 117.34578125 272.36898438 118.0390625 273.07421875 C134.52970299 288.79282551 157.25205841 296.40813581 179.79077148 296.30297852 C205.284783 295.64633751 226.7587499 284.03420738 244.328125 266.04296875 C259.72962383 249.08020688 267.13064405 225.58734603 267.15821838 202.98962402 C267.16562535 201.68080127 267.16562535 201.68080127 267.17318195 200.34553766 C267.18846108 197.4406467 267.1968914 194.53577766 267.20532227 191.63085938 C267.21490834 189.54103403 267.22491884 187.4512106 267.23532104 185.36138916 C267.26229717 179.70089865 267.28334612 174.04039986 267.30332303 168.37988091 C267.32522767 162.45949683 267.35259441 156.53913806 267.37937927 150.61877441 C267.42924568 139.41344264 267.47420692 128.20809678 267.51740164 117.00273752 C267.56682579 104.24340681 267.62172469 91.48410148 267.67708123 78.72479534 C267.79080835 52.48322059 267.89766751 26.24162148 268 0 C273.33444247 -0.07492194 278.66856946 -0.12896171 284.00341797 -0.16479492 C285.81304265 -0.17975449 287.6226319 -0.20012957 289.43212891 -0.22631836 C309.04772278 -0.50282341 325.03061913 2.48830374 339.78515625 16.62109375 C353.20114932 31.03086409 356.30752694 46.51174368 356.2746582 65.56933594 C356.27901151 67.2410047 356.28419671 68.91267148 356.29014587 70.58433533 C356.30349097 75.10781805 356.30411879 79.63121697 356.30158257 84.15471554 C356.30050828 87.94829065 356.3054087 91.74184913 356.310188 95.53542066 C356.32127099 104.5032815 356.32172955 113.47110047 356.31567383 122.43896484 C356.30965557 131.63929383 356.32189298 140.83946904 356.3432439 150.0397718 C356.36097224 157.97568212 356.3668431 165.91154403 356.36360615 173.84747338 C356.3618085 178.57031193 356.36427394 183.29304118 356.37832069 188.01586151 C356.53485562 245.63753182 342.91847003 294.45680662 301.66503906 336.36669922 C297.70350712 340.25271809 293.41795664 343.65442528 289 347 C287.63875 348.08474609 287.63875 348.08474609 286.25 349.19140625 C249.3389147 378.02819164 202.36953697 389.1685694 156.15234375 384.5 C151.38291279 383.8985815 146.69396276 383.03070373 142 382 C141.22479004 381.83371094 140.44958008 381.66742187 139.65087891 381.49609375 C114.98200666 376.03323092 92.01702117 365.3645533 72 350 C71.11570312 349.34 70.23140625 348.68 69.3203125 348 C31.47619747 318.55290745 7.87420017 275.17233573 1 228 C0.20004369 221.49133038 -0.14356208 215.07547611 -0.12025452 208.52133179 C-0.12110894 207.62257312 -0.12196337 206.72381446 -0.12284368 205.79782069 C-0.12447773 202.81620198 -0.11901142 199.83464078 -0.11352539 196.85302734 C-0.11324304 194.7037964 -0.11340218 192.55456536 -0.1139679 190.40533447 C-0.11425402 184.59205395 -0.10838721 178.77879419 -0.10139394 172.96551847 C-0.09512957 166.8823377 -0.09455416 160.79915641 -0.09336853 154.7159729 C-0.0902643 143.20611198 -0.08206316 131.6962606 -0.07201904 120.18640387 C-0.06082969 107.07880473 -0.05534034 93.97120513 -0.05032361 80.8636024 C-0.03987978 53.90906299 -0.02229794 26.95453203 0 0 Z " transform="translate(1799,391)" style="fill: #0080FF;"/><path d="M0 0 C5.61927468 -0.07486735 11.2382509 -0.12893696 16.85791016 -0.16479492 C18.76453721 -0.17976338 20.67113055 -0.20014546 22.57763672 -0.22631836 C42.40612823 -0.49146075 59.92669707 2.14918664 74.75390625 16.5625 C90.12051314 33.23860904 92.34438759 51.72524434 92.1953125 73.45703125 C92.19236261 74.91320644 92.19032802 76.36938377 92.18920898 77.82556152 C92.17883116 83.15457389 92.15090936 88.48354051 92.125 93.8125 C92.08375 105.754375 92.0425 117.69625 92 130 C125 130 158 130 192 130 C192 188.40490798 192 188.40490798 176.25 205.25 C162.91852835 217.8093787 147.22266382 222.37660946 129.3046875 222.1953125 C128.23123077 222.1924826 127.15777405 222.18965271 126.05178833 222.18673706 C122.65940695 222.17563822 119.26730013 222.15055314 115.875 222.125 C113.55989968 222.11495688 111.24479517 222.10583338 108.9296875 222.09765625 C103.28636636 222.07573273 97.6432028 222.04235932 92 222 C92.03730394 238.82136368 92.09736462 255.64247574 92.18390274 272.46365452 C92.22357123 280.2754961 92.25602519 288.08723873 92.27099609 295.89916992 C92.28407629 302.71467916 92.31120131 309.52996954 92.35461307 316.34535545 C92.37708619 319.94809545 92.39291931 323.55056696 92.39188385 327.15338326 C92.18440503 347.94408033 92.18440503 347.94408033 97 368 C97.37763489 369.0742775 97.75526978 370.14855499 98.14434814 371.25538635 C105.49069486 391.4645023 121.56950491 406.08647817 140.5 415.25 C157.59959688 422.87467162 172.58479221 422.30659972 192 423 C192 453.36 192 483.72 192 515 C180.49125 515.0928125 180.49125 515.0928125 168.75 515.1875 C166.37393555 515.21481201 163.99787109 515.24212402 161.54980469 515.27026367 C144.99382631 515.38139409 128.61196511 514.38025507 112.75 509.25 C111.93047852 508.99323486 111.11095703 508.73646973 110.26660156 508.47192383 C88.08858623 501.31807236 68.33551609 489.91065708 51.25390625 474.04296875 C49.68895113 472.6244739 48.07019275 471.26401964 46.4140625 469.953125 C20.13629297 448.69279367 4.20543408 409.25121949 0.21655762 376.62791634 C-0.27079457 370.71392087 -0.13267244 364.7694767 -0.12025452 358.83947754 C-0.12069093 357.28989758 -0.12156712 355.74031769 -0.12284368 354.1907382 C-0.12507493 349.94461491 -0.12108611 345.69851694 -0.11606562 341.45239687 C-0.11174163 336.86899092 -0.11320893 332.28558637 -0.1139679 327.70217896 C-0.11449189 319.76507734 -0.11135804 311.82798395 -0.10573006 303.8908844 C-0.09759828 292.4152123 -0.09499811 280.93954418 -0.09374207 269.46386951 C-0.09155419 250.84472586 -0.08490125 232.22558659 -0.07543945 213.60644531 C-0.06625851 195.52115908 -0.05918101 177.43587403 -0.05493164 159.35058594 C-0.05466892 158.23555138 -0.05440619 157.12051682 -0.05413551 155.97169334 C-0.05283046 150.37781577 -0.05156675 144.7839382 -0.05032361 139.19006062 C-0.03995922 92.79337071 -0.02234807 46.39668558 0 0 Z " transform="translate(3052,261)" style="fill: #0080FF;"/><path d="M0 0 C0.66 0 1.32 0 2 0 C-0.21603681 9.46165237 -2.99759191 18.70428475 -5.91796875 27.96484375 C-6.40821894 29.52855191 -6.89814412 31.092362 -7.38777161 32.65626526 C-8.43535082 36.00013931 -9.48501743 39.34334778 -10.53637695 42.68603516 C-12.21850421 48.03438692 -13.89582316 53.38423901 -15.57226562 58.734375 C-17.3168491 64.30144928 -19.0615925 69.86847261 -20.80783081 75.43502808 C-26.07027933 92.2116198 -31.30457202 108.99691437 -36.53167725 125.7845459 C-39.00822161 133.7382413 -41.48632281 141.69145159 -43.96484375 149.64453125 C-44.21174706 150.43681499 -44.45865036 151.22909874 -44.71303558 152.04539108 C-48.5538994 164.3694066 -52.40178963 176.69121617 -56.25390625 189.01171875 C-56.51425911 189.84444368 -56.77461197 190.67716862 -57.04285431 191.53512764 C-59.14226978 198.24986799 -61.24186285 204.96455281 -63.34171295 211.67915726 C-69.43760992 231.17183434 -75.52360878 250.66751394 -81.58203125 270.171875 C-81.84947458 271.03281076 -82.11691792 271.89374653 -82.39246559 272.78077126 C-84.96656195 281.06752648 -87.5395263 289.35463116 -90.10935879 297.64270973 C-91.03949506 300.64202811 -91.97033271 303.64112855 -92.90129662 306.64019012 C-93.32921516 308.01938784 -93.7567909 309.39869197 -94.18398476 310.77811432 C-94.77007755 312.6706188 -95.357427 314.56273396 -95.94482422 316.45483398 C-96.27134979 317.50815414 -96.59787537 318.5614743 -96.93429565 319.64671326 C-98.24729843 323.77813565 -99.62913796 327.88741389 -101 332 C-68 332 -35 332 -1 332 C-4.14706211 337.6647118 -7.01176955 342.63901844 -10.875 347.6875 C-15.48492036 353.84572379 -19.87347347 360.13138034 -24.1875 366.5 C-29.49182114 374.32717441 -34.84133123 382.11951249 -40.25 389.875 C-44.68594249 396.23697113 -49.11523141 402.60263261 -53.5 409 C-58.66041499 416.52774059 -63.87674415 424.01619358 -69.09326172 431.50512695 C-72.95595239 437.05321355 -76.80387137 442.61071767 -80.625 448.1875 C-85.30734822 455.02005043 -90.05707337 461.80430897 -94.81347656 468.58544922 C-98.7993451 474.27255002 -102.75038878 479.98198632 -106.67578125 485.7109375 C-110.75612945 491.6599669 -114.87678128 497.58062756 -119 503.5 C-123.51852456 509.98742299 -128.02976343 516.4791962 -132.5 523 C-137.66049117 530.52768896 -142.87674362 538.01619282 -148.09326172 545.50512695 C-151.95595239 551.05321355 -155.80387137 556.61071767 -159.625 562.1875 C-164.30734822 569.02005043 -169.05707337 575.80430897 -173.81347656 582.58544922 C-177.7993451 588.27255002 -181.75038878 593.98198632 -185.67578125 599.7109375 C-189.75612945 605.6599669 -193.87678128 611.58062756 -198 617.5 C-202.51852643 623.98742567 -207.02948077 630.47938806 -211.5 637 C-216.08378227 643.68081626 -220.69281979 650.34395802 -225.3125 657 C-225.9828125 657.96808594 -226.653125 658.93617188 -227.34375 659.93359375 C-231.12344518 665.37303532 -234.97692831 670.73768275 -239 676 C-240.11884434 672.64346698 -239.89620007 671.88224518 -238.89074707 668.6164093 C-238.61974182 667.72067263 -238.34873657 666.82493595 -238.06951904 665.90205574 C-237.76362854 664.92286612 -237.45773804 663.94367649 -237.14257812 662.93481445 C-236.82842957 661.90443495 -236.51428101 660.87405544 -236.19061279 659.81245232 C-235.14527639 656.38945946 -234.08805609 652.97024859 -233.03125 649.55078125 C-232.2948447 647.14470374 -231.55946718 644.73831145 -230.82507324 642.33161926 C-229.68635371 638.60051425 -228.54694564 634.86963333 -227.40436554 631.13970852 C-223.96312565 619.90548595 -220.58400467 608.65329305 -217.22514153 597.394207 C-216.27268925 594.20177481 -215.31897606 591.00972185 -214.36488342 587.81777954 C-213.07073511 583.48801752 -211.77698856 579.15813587 -210.4836731 574.828125 C-207.04186506 563.30540131 -203.59695613 551.78360434 -200.15234375 540.26171875 C-199.8083145 539.11090191 -199.46428524 537.96008507 -199.10983086 536.77439499 C-192.36637344 514.21720529 -185.61102669 491.66359326 -178.84622192 469.11279678 C-178.06513548 466.50878624 -177.28424883 463.90471586 -176.50341797 461.30062866 C-175.29794687 457.28047584 -174.09199296 453.26046821 -172.88560295 449.24059105 C-172.44912308 447.78597504 -172.01278539 446.33131636 -171.57660103 444.87661171 C-170.98778574 442.91305212 -170.39833039 440.94968451 -169.80883789 438.98632812 C-169.48121964 437.89453247 -169.15360138 436.80273682 -168.8160553 435.67785645 C-168.23681043 433.77708499 -167.62836747 431.8851024 -167 430 C-206.6 430 -246.2 430 -287 430 C-285.49562878 426.23907195 -284.33091369 423.77133778 -282.10546875 420.5546875 C-281.19003296 419.22123291 -281.19003296 419.22123291 -280.25610352 417.86083984 C-279.57346436 416.8755127 -278.8908252 415.89018555 -278.1875 414.875 C-276.63701731 412.615263 -275.08757383 410.35483626 -273.5390625 408.09375 C-273.11256912 407.47196869 -272.68607574 406.85018738 -272.24665833 406.20956421 C-266.13778348 397.29692215 -260.10315359 388.33394667 -254.0625 379.375 C-253.44071869 378.4532196 -252.81893738 377.53143921 -252.17831421 376.58172607 C-242.87515522 362.78769116 -233.62399969 348.95989808 -224.40823364 335.10736084 C-215.21459084 321.29011221 -205.94717572 307.52379283 -196.65673828 293.77148438 C-188.0598289 281.0437703 -179.50705205 268.28793613 -171 255.5 C-161.27702615 240.88427085 -151.48346001 226.31763565 -141.65673828 211.77148438 C-132.52344541 198.24965518 -123.44557761 184.69234114 -114.40777588 171.10653687 C-105.16943203 157.22215002 -95.85711167 143.38878547 -86.52197266 129.56933594 C-77.81963891 116.68500261 -69.16266926 103.77188919 -60.55374146 90.82498169 C-54.66610303 81.9722724 -48.75337946 73.13731612 -42.80078125 64.328125 C-42.18559128 63.41766922 -41.57040131 62.50721344 -40.93656921 61.56916809 C-38.44570007 57.88367048 -35.95437664 54.19848249 -33.46127319 50.51449585 C-27.09545857 41.10563831 -20.75846518 31.68198076 -14.5625 22.16015625 C-14.06646774 21.39865265 -13.57043549 20.63714905 -13.05937195 19.85256958 C-10.75117346 16.30536103 -8.45231423 12.75257506 -6.16723633 9.19042969 C-5.3681551 7.95628061 -4.56892955 6.72222497 -3.76953125 5.48828125 C-3.08479736 4.42134033 -2.40006348 3.35439941 -1.69458008 2.25512695 C-0.85576294 1.13883911 -0.85576294 1.13883911 0 0 Z " transform="translate(661,186)" style="fill: #0080FF;"/></svg>