<svg xmlns="http://www.w3.org/2000/svg" viewBox="0 0 900 1200" role="img" aria-labelledby="title desc">
  <title id="title">Certificate placeholder</title>
  <desc id="desc">Placeholder graphic for a company certificate image.</desc>
  <rect width="900" height="1200" fill="#f8fafc"/>
  <rect x="82" y="74" width="736" height="1052" rx="18" fill="#ffffff" stroke="#d5e1e8" stroke-width="4"/>
  <rect x="124" y="118" width="652" height="964" rx="10" fill="none" stroke="#0b78c8" stroke-width="3"/>
  <circle cx="450" cy="210" r="58" fill="#e6f3f5"/>
  <path d="M435 170h58l-44 52h44l-82 84 31-67h-39z" fill="#087ff5"/>
  <text x="450" y="350" text-anchor="middle" font-family="Arial, Helvetica, sans-serif" font-size="54" font-weight="800" fill="#202124">CERTIFICATE</text>
  <text x="450" y="410" text-anchor="middle" font-family="Arial, Helvetica, sans-serif" font-size="22" font-weight="700" letter-spacing="3" fill="#5f6b76">GUBOT DOCUMENT DISPLAY</text>
  <rect x="220" y="505" width="460" height="22" rx="11" fill="#dbe7ee"/>
  <rect x="185" y="565" width="530" height="16" rx="8" fill="#edf3f5"/>
  <rect x="185" y="613" width="530" height="16" rx="8" fill="#edf3f5"/>
  <rect x="185" y="661" width="530" height="16" rx="8" fill="#edf3f5"/>
  <rect x="245" y="790" width="410" height="112" rx="56" fill="#e6f3f5"/>
  <circle cx="450" cy="846" r="42" fill="#087ff5"/>
  <path d="M438 815h39l-30 35h30l-56 58 21-46h-27z" fill="#ffffff"/>
  <rect x="242" y="990" width="180" height="16" rx="8" fill="#dbe7ee"/>
  <rect x="478" y="990" width="180" height="16" rx="8" fill="#dbe7ee"/>
</svg>
